PathFileType	4	(X/Y/Z)	Kaydara																																																																																																																									
DataRate	CameraRate	NumFrames	NumMarkers	Units	OrigDataRate	OrigDataStartFrame	OrigNumFrames																																																																																																																					
30	30	8	41	mm	30	167	373																																																																																																																					
Frame#	Time	NABA_LFHD			NABA_RFHD			NABA_LBHD			NABA_RBHD			NABA_LFTShould			NABA_RFTShould			NABA_LRRShould			NABA_RRRShould			NABA_T10			NABA_STRN			NABA_TRUN			NABA_LSHO			NABA_LUPA			NABA_LELB			NABA_LFRM			NABA_LWRA			NABA_LWRB			NABA_LFIN			NABA_RSHO			NABA_RUPA			NABA_RELB			NABA_RFRM			NABA_RWRA			NABA_RWRB			NABA_RFIN			NABA_LFWT			NABA_RFWT			NABA_LBWT			NABA_RBWT			NABA_LTHI			NABA_LKNE			NABA_LSHN			NABA_LANK			NABA_LHEE			NABA_LTOE			NABA_RTHI			NABA_RKNE			NABA_RSHN			NABA_RANK			NABA_RHEE			NABA_RTOE		
		X1	Y1	Z1	X2	Y2	Z2	X3	Y3	Z3	X4	Y4	Z4	X5	Y5	Z5	X6	Y6	Z6	X7	Y7	Z7	X8	Y8	Z8	X9	Y9	Z9	X10	Y10	Z10	X11	Y11	Z11	X12	Y12	Z12	X13	Y13	Z13	X14	Y14	Z14	X15	Y15	Z15	X16	Y16	Z16	X17	Y17	Z17	X18	Y18	Z18	X19	Y19	Z19	X20	Y20	Z20	X21	Y21	Z21	X22	Y22	Z22	X23	Y23	Z23	X24	Y24	Z24	X25	Y25	Z25	X26	Y26	Z26	X27	Y27	Z27	X28	Y28	Z28	X29	Y29	Z29	X30	Y30	Z30	X31	Y31	Z31	X32	Y32	Z32	X33	Y33	Z33	X34	Y34	Z34	X35	Y35	Z35	X36	Y36	Z36	X37	Y37	Z37	X38	Y38	Z38	X39	Y39	Z39	X40	Y40	Z40	X41	Y41	Z41
																																																																																																																												
94	5.53	254.57592	1426.2738	-998.61313	83.94027	1398.38043	-1000.62149	269.20507	1514.25842	-1088.28209	52.12949	1471.16669	-1065.14427	233.1332	1298.92197	-1183.59093	107.57988	1292.88239	-1186.67419	238.66804	1378.27927	-1281.85501	93.38774	1372.31949	-1278.56972	177.15134	1229.86221	-1387.57645	173.87489	1235.89035	-1145.19005	174.62471	1132.26746	-1111.7366	327.74178	1333.82416	-1218.42148	392.5631	1109.11171	-1251.35605	391.44688	1007.22336	-1227.80907	383.60729	927.49924	-1249.13208	312.13001	783.60245	-1180.16159	383.13927	781.20712	-1171.66885	354.3037	725.49225	-1130.08949	23.53701	1328.125	-1217.8511	-37.74926	1130.51102	-1294.3895	-55.95661	998.70895	-1246.61606	-55.50523	903.7178	-1235.14175	19.05233	786.01334	-1152.78885	-53.83831	772.65121	-1150.26505	-38.45427	740.55847	-1115.73181	297.00668	932.62268	-1197.57568	32.15249	939.53506	-1202.78786	250.78867	993.25798	-1370.60287	81.73656	1009.26926	-1378.89893	285.73252	636.30287	-1345.87494	272.89728	484.33098	-1296.60049	202.78698	289.14455	-1295.97107	225.56131	147.37383	-1382.19543	168.5854	109.47694	-1449.03458	195.63009	70.11665	-1271.90468	15.09316	644.93317	-1271.33095	24.12705	525.03265	-1107.54555	24.92385	349.54006	-1090.1796	9.23499	149.51596	-1117.77023	55.87916	89.91452	-1172.72255	23.29351	98.84965	-992.86148
95	5.563	253.90184	1425.96756	-990.82962	83.24558	1397.95364	-992.67204	268.31898	1513.69232	-1080.66078	51.30809	1470.48676	-1057.24571	232.28458	1298.10318	-1175.81757	106.43121	1292.15851	-1178.5273	237.57507	1377.40509	-1274.048	92.34474	1371.4035	-1270.60478	176.08265	1229.00581	-1379.62082	173.01088	1235.01823	-1137.42355	173.94268	1131.36467	-1104.13368	326.90502	1332.92923	-1210.76927	392.15977	1108.81577	-1246.50497	391.20571	1006.58478	-1223.66394	383.37189	927.08	-1245.7946	311.77269	782.40791	-1177.89268	383.17566	779.85626	-1169.99947	354.53819	723.57124	-1129.15085	22.45075	1327.11288	-1209.48654	-38.45013	1129.69818	-1287.07016	-56.95927	997.81174	-1239.63646	-56.91881	902.91931	-1228.79173	16.71629	784.33334	-1146.86188	-56.17806	771.21552	-1144.91714	-41.12423	738.70216	-1110.57938	296.24584	931.51962	-1190.20706	31.29972	938.55721	-1195.03738	249.86935	992.71141	-1362.91275	80.91206	1008.80318	-1371.06277	284.92561	636.04465	-1340.54123	272.33849	483.76278	-1292.5708	202.54768	288.51479	-1293.95218	225.47787	147.45396	-1381.40381	168.42838	110.07413	-1448.58765	195.74465	70.02701	-1271.85104	13.33423	644.07242	-1264.65851	24.07403	524.53106	-1102.30415	25.7318	350.88997	-1076.6552	9.2172	149.74112	-1092.41577	53.58088	87.17025	-1145.69359	28.87362	104.77466	-964.71733
96	5.597	252.81498	1425.46814	-982.58705	82.11329	1397.45651	-984.11919	267.1368	1513.03055	-1072.63168	50.11607	1469.88129	-1048.85712	231.08364	1297.12509	-1167.49802	108.51067	1288.88	-1174.22668	236.13871	1376.5062	-1265.73463	90.82901	1370.40405	-1262.00203	174.41593	1228.13637	-1371.32446	171.87286	1233.92632	-1129.06639	173.12603	1130.08499	-1096.64154	325.64922	1331.93085	-1202.82448	391.36906	1108.27484	-1240.99731	390.49683	1005.68642	-1218.94173	382.90474	926.70502	-1242.00951	312.17031	780.64804	-1175.97893	383.38913	778.38936	-1168.08365	354.98573	721.48582	-1127.8933	20.92789	1325.91156	-1200.48683	-39.51221	1128.76175	-1279.34753	-58.30842	996.7469	-1232.46674	-58.5145	901.82327	-1222.08946	14.25243	782.45117	-1140.59731	-58.55176	769.57092	-1139.09569	-43.59449	736.63872	-1104.96948	295.25789	930.3759	-1182.72255	30.22225	937.39944	-1186.74339	248.5091	992.18872	-1355.0354	79.36347	1008.08624	-1362.79648	284.01529	636.05801	-1335.27542	271.83414	483.27103	-1288.71552	202.46586	287.83253	-1291.91071	225.49692	147.67608	-1380.79559	168.27686	110.72548	-1448.13828	195.99039	69.9034	-1271.754	11.50069	642.92007	-1257.60483	24.97014	523.58021	-1096.47018	26.80373	351.84959	-1065.15602	8.93564	150.33813	-1071.53374	51.36402	84.98217	-1123.24654	33.22656	109.46064	-942.19246
97	5.63	251.45878	1424.84161	-973.84575	80.75644	1396.77902	-974.94415	265.60186	1512.17926	-1064.14749	48.58652	1469.05731	-1039.82101	229.47927	1296.00067	-1158.71826	106.79554	1287.85187	-1164.9501	234.1214	1375.49179	-1256.9722	88.83887	1369.34341	-1252.75467	172.16349	1227.24197	-1362.51434	170.39646	1232.63138	-1120.22781	171.89236	1128.68164	-1088.21609	323.98041	1330.91858	-1194.27307	390.01747	1107.74719	-1234.73373	389.6241	1004.82262	-1213.39134	382.2102	926.28677	-1237.59216	312.79821	778.83896	-1173.63319	383.75191	777.03621	-1165.66307	355.67131	719.40491	-1126.11145	19.11498	1324.60297	-1191.0199	-40.99662	1127.73727	-1270.99144	-60.10201	995.48546	-1224.71207	-60.33919	900.54878	-1214.88449	11.94831	780.65811	-1133.80966	-60.89726	767.78046	-1132.69348	-45.81985	734.36279	-1098.95981	294.06027	929.30084	-1175.00282	28.91049	936.04118	-1177.83653	246.35695	991.65031	-1346.8306	77.22375	1007.267	-1353.94089	282.73565	636.13617	-1330.00702	271.26301	482.92446	-1285.04303	202.93859	287.29126	-1290.13092	225.48923	148.00572	-1380.47928	167.84616	111.50976	-1447.724	196.40841	69.76077	-1271.71219	10.3215	641.50833	-1250.18051	25.63297	522.00623	-1090.23399	27.24432	351.81328	-1055.77904	8.38166	150.31499	-1055.89172	49.10949	83.73784	-1106.88278	35.41311	111.32665	-925.23659
98	5.663	249.75241	1423.92502	-964.43428	79.13126	1395.73898	-965.04631	263.62694	1511.21613	-1054.87823	46.7772	1467.98569	-1029.80316	227.48205	1294.87198	-1149.3943	104.69567	1286.5538	-1154.95636	231.55128	1374.5726	-1247.63817	86.24107	1368.26508	-1242.79915	169.13246	1226.45126	-1353.19458	168.5458	1231.33972	-1110.82932	170.38708	1127.29721	-1079.08646	321.82732	1330.04089	-1185.39413	388.02433	1107.16904	-1227.83936	388.19607	1004.16054	-1207.35542	381.05782	926.008	-1232.38609	312.9133	777.2541	-1169.81819	384.11991	775.84602	-1162.40097	356.56178	717.40997	-1123.56621	16.83506	1323.36777	-1180.96359	-43.11639	1126.62331	-1261.7411	-62.18934	994.15039	-1216.00418	-62.48879	899.22653	-1206.84044	9.79074	778.77609	-1126.61385	-63.14229	765.77209	-1125.70946	-47.82433	731.80832	-1092.41173	292.50828	928.5141	-1166.99661	27.3614	934.49341	-1168.16933	243.58955	991.34682	-1338.30963	74.35964	1006.33636	-1344.36295	280.90969	636.61263	-1324.71375	270.88482	482.95864	-1281.32401	204.0225	286.99066	-1288.91022	225.67219	148.68757	-1380.22903	167.49071	112.68976	-1447.11258	197.01426	69.63177	-1271.6375	9.53473	640.00427	-1242.14111	25.60682	519.76429	-1083.83873	27.09584	350.25742	-1048.47313	8.25678	148.84644	-1046.0614	48.76559	81.54792	-1096.30333	36.06944	111.10088	-914.82521
99	5.697	247.89648	1422.75955	-954.45892	77.29953	1394.38126	-954.33205	261.25359	1510.15854	-1044.85863	44.6025	1466.754	-1018.90221	225.07366	1293.89877	-1139.58511	102.153	1285.59357	-1144.41833	228.20623	1373.80981	-1237.80357	82.92555	1367.30591	-1231.99791	165.18921	1225.80322	-1343.21228	166.37859	1230.18753	-1100.74066	168.47303	1125.86494	-1069.88388	318.90198	1329.29398	-1176.37634	385.42187	1106.78558	-1220.3611	386.24065	1003.75603	-1200.5809	379.47006	925.96146	-1226.35933	313.04962	775.96138	-1165.00381	384.37859	775.03212	-1158.35899	357.56321	715.80147	-1120.04929	13.94694	1322.24243	-1170.1255	-45.89	1125.63866	-1251.40289	-64.65576	992.89902	-1206.21407	-64.89643	897.96562	-1197.78824	7.57698	776.94611	-1118.84026	-65.37236	763.7886	-1117.88101	-49.81161	729.37973	-1084.99565	290.7799	927.97523	-1158.53737	25.57917	932.91298	-1157.59247	240.01276	991.21513	-1329.27231	70.86188	1005.41954	-1333.85712	278.9765	637.34028	-1318.80127	270.35198	483.20114	-1277.10358	204.58132	286.8951	-1286.46255	225.79945	149.69478	-1379.66614	167.24554	114.31579	-1446.34506	197.6108	69.46789	-1271.48499	8.11575	638.35068	-1233.92357	24.85354	516.84483	-1077.1772	26.71745	347.27482	-1042.84897	8.67634	145.71306	-1041.33423	49.42767	78.88453	-1091.98151	36.41572	107.15712	-910.29839
100	5.73	245.80942	1421.43433	-943.98476	75.45065	1392.8978	-942.71866	258.4148	1509.09775	-1034.2485	41.98415	1465.28229	-1006.8924	222.08788	1293.07709	-1129.19052	99.23811	1284.46762	-1133.27332	224.02575	1373.09082	-1227.45651	78.77776	1366.38367	-1220.40146	160.26506	1225.04761	-1332.39792	163.83684	1229.26674	-1090.06493	166.35628	1124.82498	-1059.25293	315.4607	1328.69095	-1167.06627	382.17674	1106.63498	-1212.3613	383.79173	1003.60329	-1193.21106	377.3822	926.1422	-1219.66148	313.2066	774.72191	-1159.34814	384.54414	774.60449	-1153.19847	358.68195	714.63982	-1115.34752	10.4909	1321.16409	-1158.17947	-49.33195	1124.71741	-1239.84848	-67.61369	991.61697	-1195.19936	-67.8296	896.7968	-1187.47414	5.05715	775.01358	-1110.22537	-67.91007	761.91719	-1108.87375	-51.89223	727.02835	-1076.49826	288.64655	927.59155	-1149.34959	23.17821	931.30936	-1145.56541	235.94795	991.16371	-1319.36157	66.85748	1004.56047	-1322.25784	276.92312	638.21808	-1312.21558	269.54779	483.59291	-1272.18124	204.80837	287.05078	-1283.65372	225.85079	151.07346	-1378.74298	167.18739	116.24315	-1445.37994	198.1097	69.38716	-1271.24573	6.48806	636.65203	-1225.50156	23.55019	512.79186	-1070.91431	26.10977	342.69054	-1039.36951	8.96086	141.12022	-1041.2809	50.12151	75.109	-1092.70203	37.20942	99.94858	-910.4731
101	5.763	243.49047	1420.28381	-932.91359	73.09663	1391.42776	-930.17792	255.1018	1508.25974	-1023.02124	39.04649	1463.88077	-993.63434	218.55394	1292.49969	-1118.32283	95.09458	1283.80264	-1121.25404	219.10158	1372.99469	-1216.83517	73.80307	1365.5687	-1207.79556	154.50486	1224.71886	-1320.87845	161.00748	1228.75038	-1078.57529	164.18541	1124.26598	-1047.70737	311.15095	1328.2579	-1157.40944	378.28568	1106.6716	-1204.01794	380.76038	1003.65578	-1185.2771	374.67236	926.51337	-1212.13089	313.08485	774.0654	-1152.17049	384.25869	774.56741	-1146.8885	359.47041	713.9608	-1109.25102	6.34471	1319.95209	-1144.88136	-53.49512	1123.68134	-1227.02728	-71.23564	990.35309	-1182.94991	-71.26413	895.44075	-1175.98282	2.31362	773.19	-1100.18585	-70.67843	759.88762	-1098.49281	-54.27256	724.61075	-1066.66466	286.10512	927.16476	-1139.48105	20.80009	929.66812	-1132.99683	231.47242	991.16356	-1308.74741	62.17155	1004.29123	-1309.62067	274.32486	639.04434	-1304.77417	267.94653	483.97255	-1266.4373	204.45509	287.23732	-1280.41702	225.83872	152.64099	-1377.46567	167.29681	118.39259	-1444.31976	198.50962	69.29017	-1270.92964	5.23163	636.09631	-1217.1933	22.25234	508.73249	-1065.46715	24.99216	339.97532	-1035.8139	9.15215	138.54969	-1038.11691	51.04963	74.37508	-1089.55551	36.10809	93.33485	-906.64009
